<?xml version="1.0" encoding="utf-8"?>
<!-- Generator: Adobe Illustrator 27.5.0, SVG Export Plug-In . SVG Version: 6.00 Build 0)  -->
<svg version="1.1" id="Layer_1" xmlns="http://www.w3.org/2000/svg" xmlns:xlink="http://www.w3.org/1999/xlink" x="0px" y="0px"
	 viewBox="0 0 550 550" style="enable-background:new 0 0 550 550;" xml:space="preserve">
<g id="_x35_13_-_Browser_Setting">
	<g>
		<g>
			<path style="fill:#070606;" d="M433.7,187.4H116.3c-2.8,0-5.1-2.3-5.1-5.1v-38.7c0-8.6,7-15.6,15.6-15.6h296.5
				c8.6,0,15.6,7,15.6,15.6v38.7C438.8,185.1,436.5,187.4,433.7,187.4z M121.4,177.1h307.2v-33.6c0-3-2.4-5.4-5.4-5.4H126.8
				c-3,0-5.4,2.4-5.4,5.4V177.1z"/>
		</g>
		<g>
			<path style="fill:#070606;" d="M423.2,422.1H126.8c-8.6,0-15.6-7-15.6-15.6V182.3c0-2.8,2.3-5.1,5.1-5.1h317.4
				c2.8,0,5.1,2.3,5.1,5.1v224.2C438.8,415.1,431.8,422.1,423.2,422.1z M121.4,187.4v219.1c0,3,2.4,5.4,5.4,5.4h296.5
				c3,0,5.4-2.4,5.4-5.4V187.4H121.4z"/>
		</g>
		<g>
			<g>
				<path style="fill:#070606;" d="M166.9,162.8h-22.8c-2.8,0-5.1-2.3-5.1-5.1s2.3-5.1,5.1-5.1h22.8c2.8,0,5.1,2.3,5.1,5.1
					S169.8,162.8,166.9,162.8z"/>
			</g>
			<g>
				<path style="fill:#070606;" d="M221.9,162.8H199c-2.8,0-5.1-2.3-5.1-5.1s2.3-5.1,5.1-5.1h22.8c2.8,0,5.1,2.3,5.1,5.1
					C227,160.5,224.7,162.8,221.9,162.8z"/>
			</g>
			<g>
				<path style="fill:#070606;" d="M276.8,162.8H254c-2.8,0-5.1-2.3-5.1-5.1s2.3-5.1,5.1-5.1h22.8c2.8,0,5.1,2.3,5.1,5.1
					S279.6,162.8,276.8,162.8z"/>
			</g>
		</g>
		<g>
			<path style="fill:#070606;" d="M279.4,187.4c-1.3,0-2.6-0.5-3.6-1.5c-2-2-2-5.2,0-7.2l49.2-49.2c2-2,5.2-2,7.2,0s2,5.2,0,7.2
				L283,185.9C282,186.9,280.7,187.4,279.4,187.4z"/>
		</g>
		<g>
			<g>
				<path style="fill:#070606;" d="M287.8,394.6h-25.6c-2.8,0-5.1-2.3-5.1-5.1v-29.6c-4.2-1.2-8.2-2.9-12-5l-20.9,20.9
					c-2,2-5.2,2-7.2,0l-18.1-18.1c-1-1-1.5-2.3-1.5-3.6c0-1.3,0.5-2.7,1.5-3.6l20.9-20.9c-2.1-3.8-3.7-7.9-5-12h-29.6
					c-2.8,0-5.1-2.3-5.1-5.1v-25.6c0-2.8,2.3-5.1,5.1-5.1h29.6c1.2-4.2,2.9-8.2,5-12l-20.9-20.9c-2-2-2-5.2,0-7.2l18.1-18.1
					c2-2,5.2-2,7.2,0l20.9,20.9c3.8-2.1,7.9-3.7,12-5v-29.6c0-2.8,2.3-5.1,5.1-5.1h25.6c2.8,0,5.1,2.3,5.1,5.1v29.6
					c4.2,1.2,8.2,2.9,12,5l20.9-20.9c1-1,2.3-1.5,3.6-1.5c1.4,0,2.7,0.5,3.6,1.5l18.1,18.1c2,2,2,5.2,0,7.2l-20.9,20.9
					c2.1,3.8,3.7,7.9,5,12h29.6c2.8,0,5.1,2.3,5.1,5.1v25.6c0,2.8-2.3,5.1-5.1,5.1h-29.6c-1.2,4.2-2.9,8.2-5,12l20.9,20.9
					c1,1,1.5,2.3,1.5,3.6c0,1.3-0.5,2.7-1.5,3.6L333,375.8c-2,2-5.2,2-7.2,0l-20.9-20.9c-3.8,2.1-7.9,3.7-12,5v29.6
					C292.9,392.3,290.6,394.6,287.8,394.6z M267.3,384.4h15.4V356c0-2.4,1.7-4.5,4-5c5.8-1.3,11.3-3.6,16.4-6.8c2-1.3,4.7-1,6.4,0.7
					l20.1,20.1l10.9-10.9L320.3,334c-1.7-1.7-2-4.3-0.7-6.4c3.2-5.1,5.5-10.6,6.8-16.4c0.5-2.3,2.6-4,5-4h28.4v-15.4h-28.4
					c-2.4,0-4.5-1.7-5-4c-1.3-5.8-3.6-11.3-6.8-16.4c-1.3-2-1-4.7,0.7-6.4l20.1-20.1L329.5,234l-20.1,20.1c-1.7,1.7-4.3,2-6.4,0.7
					c-5.1-3.2-10.6-5.5-16.4-6.8c-2.3-0.5-4-2.6-4-5v-28.4h-15.4V243c0,2.4-1.7,4.5-4,5c-5.8,1.3-11.3,3.6-16.4,6.8
					c-2,1.3-4.7,1-6.4-0.7L220.3,234l-10.9,10.9l20.1,20.1c1.7,1.7,2,4.3,0.7,6.4c-3.2,5.1-5.5,10.6-6.8,16.4c-0.5,2.3-2.6,4-5,4
					H190v15.4h28.4c2.4,0,4.5,1.7,5,4c1.3,5.8,3.6,11.3,6.8,16.4c1.3,2,1,4.7-0.7,6.4l-20.1,20.1l10.9,10.9l20.1-20.1
					c1.7-1.7,4.3-2,6.4-0.7c5.1,3.2,10.6,5.5,16.4,6.8c2.3,0.5,4,2.6,4,5v28.4H267.3z"/>
			</g>
			<g>
				<path style="fill:#070606;" d="M275,337.4c-20.8,0-37.8-17-37.8-37.8c0-20.8,17-37.8,37.8-37.8s37.8,17,37.8,37.8
					C312.8,320.5,295.8,337.4,275,337.4z M275,272c-15.2,0-27.6,12.4-27.6,27.6c0,15.2,12.4,27.6,27.6,27.6s27.6-12.4,27.6-27.6
					C302.6,284.4,290.2,272,275,272z"/>
			</g>
		</g>
	</g>
</g>
<g id="Layer_1_1_">
</g>
<g>
	<path d="M275,515c-32.4,0-63.8-6.3-93.4-18.9c-28.6-12.1-54.2-29.4-76.3-51.4c-22-22-39.3-47.7-51.4-76.3
		C41.3,338.8,35,307.4,35,275s6.3-63.8,18.9-93.4c12.1-28.6,29.4-54.2,51.4-76.3c22-22,47.7-39.3,76.3-51.4
		C211.2,41.3,242.6,35,275,35s63.8,6.3,93.4,18.9c28.6,12.1,54.2,29.4,76.3,51.4c22,22,39.3,47.7,51.4,76.3
		c12.5,29.6,18.9,61,18.9,93.4s-6.3,63.8-18.9,93.4c-12.1,28.6-29.4,54.2-51.4,76.3c-22,22-47.7,39.3-76.3,51.4
		C338.8,508.7,307.4,515,275,515z M275,45C148.2,45,45,148.2,45,275s103.2,230,230,230s230-103.2,230-230S401.8,45,275,45z"/>
</g>
</svg>
