<svg enable-background="new 0 0 512 512" height="512" viewBox="0 0 512 512" width="512" xmlns="http://www.w3.org/2000/svg"><g id="_x36__x2C__Gear_x2C__settings_x2C__setup"><g><g><g><path d="m301 496h-90c-2.761 0-5-2.238-5-5v-51.661c-15.476-4.21-30.335-10.37-44.276-18.353l-36.539 36.539c-.938.938-2.209 1.465-3.536 1.465s-2.598-.526-3.536-1.465l-63.64-63.64c-1.953-1.952-1.953-5.118 0-7.07l36.539-36.539c-7.982-13.941-14.141-28.8-18.351-44.276h-51.661c-2.761 0-5-2.238-5-5v-90c0-2.761 2.239-5 5-5h51.661c4.21-15.476 10.37-30.335 18.353-44.276l-36.539-36.539c-1.953-1.953-1.953-5.119 0-7.071l63.64-63.64c1.953-1.952 5.118-1.952 7.071 0l36.539 36.539c13.94-7.983 28.8-14.143 44.276-18.353v-51.66c0-2.761 2.239-5 5-5h90c2.762 0 5 2.239 5 5v51.661c15.476 4.21 30.335 10.37 44.275 18.353l36.54-36.539c1.951-1.952 5.119-1.952 7.07 0l63.64 63.64c.938.938 1.465 2.209 1.465 3.536s-.526 2.598-1.465 3.536l-36.539 36.539c7.982 13.94 14.143 28.8 18.353 44.276h51.66c2.762 0 5 2.239 5 5v90c0 2.762-2.238 5-5 5h-51.661c-4.21 15.476-10.37 30.335-18.353 44.276l36.539 36.539c.938.938 1.465 2.209 1.465 3.535s-.526 2.598-1.465 3.535l-63.64 63.64c-1.951 1.953-5.119 1.953-7.07 0l-36.54-36.539c-13.94 7.982-28.8 14.143-44.275 18.353v51.659c0 2.762-2.238 5-5 5zm-85-10h80v-50.523c0-2.294 1.562-4.294 3.787-4.851 17.146-4.285 33.536-11.08 48.719-20.194 1.967-1.182 4.485-.871 6.108.752l35.736 35.735 56.568-56.568-35.735-35.735c-1.623-1.622-1.933-4.141-.752-6.108 9.115-15.184 15.909-31.575 20.194-48.72.557-2.226 2.557-3.787 4.851-3.787h50.524v-80h-50.523c-2.294 0-4.294-1.562-4.851-3.787-4.285-17.146-11.08-33.537-20.194-48.719-1.181-1.968-.871-4.487.752-6.109l35.735-35.735-56.568-56.569-35.736 35.735c-1.622 1.623-4.142 1.934-6.108.751-15.183-9.114-31.573-15.908-48.719-20.194-2.226-.556-3.787-2.556-3.787-4.851v-50.523h-80v50.523c0 2.294-1.562 4.294-3.787 4.851-17.146 4.286-33.537 11.08-48.719 20.194-1.968 1.181-4.487.871-6.109-.751l-35.736-35.735-56.568 56.568 35.735 35.735c1.623 1.623 1.932 4.142.751 6.109-9.114 15.182-15.908 31.573-20.194 48.719-.556 2.226-2.556 3.787-4.851 3.787h-50.523v80h50.523c2.294 0 4.294 1.562 4.851 3.787 4.285 17.145 11.08 33.536 20.194 48.72 1.181 1.968.871 4.486-.751 6.108l-35.735 35.735 56.568 56.568 35.735-35.735c1.624-1.623 4.143-1.933 6.109-.752 15.182 9.114 31.573 15.909 48.719 20.194 2.226.557 3.787 2.557 3.787 4.851z"/></g><g><path d="m256 376c-66.168 0-120-53.832-120-120s53.832-120 120-120 120 53.832 120 120-53.832 120-120 120zm0-230c-60.654 0-110 49.346-110 110s49.346 110 110 110 110-49.346 110-110-49.346-110-110-110z"/></g><g><path d="m256 330c-40.804 0-74-33.196-74-74s33.196-74 74-74 74 33.196 74 74-33.196 74-74 74zm0-138c-35.29 0-64 28.71-64 64s28.71 64 64 64 64-28.71 64-64-28.71-64-64-64z"/></g></g></g></g></svg>