<svg id="Layer_1" enable-background="new 0 0 48 48" viewBox="0 0 48 48" xmlns="http://www.w3.org/2000/svg"><g><path d="m46.8 20.5-4.6-2c-.4-1.2-.9-2.4-1.5-3.5l1.9-4.6c.3-.7.1-1.6-.4-2.2l-2.4-2.4c-.6-.6-1.4-.7-2.2-.4l-4.6 1.8c-1.1-.6-2.3-1.1-3.5-1.4l-2-4.6c-.3-.7-1-1.2-1.8-1.2h-3.4c-.8 0-1.5.5-1.8 1.2l-2 4.6c-1.2.4-2.4.8-3.5 1.4l-4.6-1.9c-.8-.2-1.6 0-2.2.5l-2.4 2.4c-.6.6-.7 1.4-.4 2.2l1.9 4.6c-.6 1.1-1.1 2.3-1.4 3.5l-4.6 2c-.7.3-1.2 1-1.2 1.8v3.4c0 .8.5 1.5 1.2 1.8l4.6 2c.4 1.2.9 2.4 1.4 3.5l-1.8 4.6c-.3.7-.1 1.6.4 2.2l2.4 2.4c.6.6 1.4.7 2.1.4l4.6-1.8c1.1.6 2.3 1.1 3.5 1.5l2 4.6c.3.7 1 1.2 1.8 1.2h3.4c.8 0 1.5-.5 1.8-1.2l2-4.6c1.2-.4 2.4-.9 3.5-1.5l4.6 1.8c.7.3 1.6.1 2.2-.4l2.4-2.4c.6-.6.7-1.4.4-2.1l-1.9-4.7c.6-1.1 1.1-2.3 1.5-3.5l4.6-2c.7-.3 1.2-1 1.2-1.8v-3.4c0-.8-.5-1.5-1.2-1.8zm-22.8 15.5c-6.6 0-12-5.4-12-12s5.4-12 12-12 12 5.4 12 12-5.4 12-12 12z"/><circle cx="24" cy="24" r="6"/></g></svg>