<svg id="Layer_1" enable-background="new 0 0 50 50" viewBox="0 0 50 50" xmlns="http://www.w3.org/2000/svg"><g><path d="m47.3 20.1-4.8-1.5c-.2-.5-.4-1-.6-1.5l2.4-4.5c.4-.7.2-1.6-.3-2.2l-4.5-4.5c-.6-.6-1.4-.7-2.2-.3l-4.5 2.4c-.5-.2-1-.4-1.5-.6l-1.5-4.8c-.2-.8-.9-1.3-1.8-1.3h-6.3c-.8 0-1.5.5-1.8 1.3l-1.5 4.8c-.5.2-1 .4-1.5.6l-4.5-2.4c-.7-.4-1.6-.2-2.2.3l-4.5 4.5c-.6.6-.7 1.4-.3 2.2l2.4 4.5c-.2.5-.4 1-.6 1.5l-4.8 1.5c-.8.2-1.3.9-1.3 1.8v6.3c0 .8.5 1.5 1.3 1.8l4.8 1.5.6 1.5-2.4 4.5c-.4.7-.2 1.6.3 2.2l4.5 4.5c.6.6 1.4.7 2.2.3l4.5-2.4c.5.2 1 .4 1.4.6l1.5 4.8c.2.8.9 1.3 1.8 1.3h6.3c.8 0 1.5-.5 1.8-1.3l1.5-4.8c.5-.2 1-.4 1.4-.6l4.5 2.4c.7.4 1.6.2 2.2-.3l4.5-4.5c.6-.6.7-1.4.3-2.2l-2.4-4.5c.2-.5.4-1 .6-1.5l4.8-1.5c.8-.2 1.3-.9 1.3-1.8v-6.3c.2-.9-.3-1.6-1.1-1.8zm-2.4 6.7-4.4 1.4c-.6.2-1 .6-1.2 1.2-.3.9-.6 1.8-1.1 2.6-.3.5-.3 1.2 0 1.7l2.2 4.1-2.6 2.6-4.1-2.2c-.5-.3-1.2-.3-1.7 0-.9.5-1.7.8-2.6 1.1-.6.2-1 .6-1.2 1.2l-1.4 4.5h-3.6l-1.4-4.4c-.2-.6-.6-1-1.2-1.2-.9-.3-1.8-.6-2.6-1.1-.5-.3-1.2-.3-1.7 0l-4.1 2.2-2.6-2.6 2.2-4.1c.3-.5.3-1.2 0-1.7-.4-.8-.8-1.7-1.1-2.6-.2-.6-.6-1-1.2-1.2l-4.4-1.4v-3.6l4.4-1.4c.6-.2 1-.6 1.2-1.2.3-.9.6-1.8 1.1-2.6.3-.5.3-1.2 0-1.7l-2.2-4.1 2.6-2.6 4.1 2.2c.5.3 1.2.3 1.7 0 .8-.4 1.7-.8 2.6-1.1.6-.2 1-.6 1.2-1.2l1.4-4.6h3.6l1.4 4.4c.2.6.6 1 1.2 1.2.9.3 1.8.6 2.6 1.1.5.3 1.2.3 1.7 0l4.1-2.2 2.6 2.6-2.2 4.1c-.3.5-.3 1.2 0 1.7.4.8.8 1.7 1.1 2.6.2.6.6 1 1.2 1.2l4.4 1.4z"/><path d="m25 15.5c-5.2 0-9.5 4.3-9.5 9.5s4.3 9.5 9.5 9.5 9.5-4.3 9.5-9.5-4.3-9.5-9.5-9.5zm0 15.3c-3.2 0-5.8-2.6-5.8-5.8s2.6-5.8 5.8-5.8 5.8 2.6 5.8 5.8-2.6 5.8-5.8 5.8z"/></g></svg>