<?xml version="1.0" encoding="iso-8859-1"?>
<!-- Generator: Adobe Illustrator 19.0.0, SVG Export Plug-In . SVG Version: 6.00 Build 0)  -->
<svg version="1.1" id="Capa_1" xmlns="http://www.w3.org/2000/svg" xmlns:xlink="http://www.w3.org/1999/xlink" x="0px" y="0px"
	 viewBox="0 0 512 512" style="enable-background:new 0 0 512 512;" xml:space="preserve">
<g>
	<g>
		<path d="M499.899,211.283l-57.287-11.284c-3.778-12.608-8.825-24.783-15.078-36.373l31.865-47.799
			c3.966-5.949,3.182-13.871-1.875-18.927L415.1,54.475c-5.055-5.056-12.979-5.841-18.927-1.875l-47.799,31.865
			c-11.589-6.253-23.764-11.3-36.373-15.078L300.717,12.1C299.332,5.069,293.167,0,286,0h-60c-7.167,0-13.332,5.069-14.717,12.101
			l-11.284,57.287c-12.608,3.778-24.783,8.825-36.372,15.078l-47.799-31.865c-5.95-3.966-13.872-3.182-18.927,1.875L54.475,96.9
			c-5.056,5.056-5.84,12.978-1.875,18.927l31.865,47.799c-6.253,11.589-11.3,23.764-15.078,36.373L12.1,211.283
			C5.069,212.668,0,218.833,0,226v60c0,7.167,5.069,13.332,12.101,14.717l57.287,11.284c3.778,12.608,8.825,24.783,15.078,36.372
			L52.601,396.17c-3.966,5.95-3.182,13.871,1.874,18.927L96.9,457.525c5.057,5.057,12.979,5.84,18.927,1.875l47.799-31.865
			c11.589,6.253,23.764,11.3,36.372,15.078l11.284,57.287c1.386,7.031,7.551,12.1,14.718,12.1h60
			c7.167,0,13.332-5.069,14.717-12.101l11.284-57.287c12.608-3.778,24.783-8.825,36.373-15.078l47.799,31.865
			c5.949,3.965,13.872,3.182,18.927-1.875l42.425-42.427c5.056-5.056,5.84-12.978,1.874-18.927l-31.865-47.797
			c6.253-11.589,11.3-23.764,15.078-36.372l57.287-11.284C506.931,299.332,512,293.167,512,286v-60
			C512,218.833,506.931,212.668,499.899,211.283z M482,273.667l-54.306,10.697c-5.723,1.127-10.272,5.469-11.667,11.132
			c-3.967,16.121-10.342,31.502-18.948,45.716c-3.013,4.978-2.876,11.248,0.351,16.089l30.187,45.279l-25.035,25.037l-45.28-30.187
			c-4.841-3.228-11.111-3.364-16.089-0.351c-14.214,8.605-29.595,14.98-45.716,18.948c-5.663,1.394-10.005,5.944-11.132,11.667
			L273.667,482h-35.333l-10.697-54.306c-1.127-5.723-5.469-10.272-11.132-11.667c-16.121-3.967-31.502-10.342-45.716-18.948
			c-4.978-3.014-11.248-2.876-16.089,0.351l-45.28,30.187L84.383,402.58l30.187-45.279c3.227-4.841,3.364-11.111,0.351-16.089
			c-8.605-14.214-14.98-29.596-18.948-45.716c-1.394-5.663-5.944-10.005-11.667-11.132L30,273.667v-35.333l54.306-10.697
			c5.723-1.127,10.272-5.469,11.667-11.132c3.968-16.122,10.343-31.502,18.948-45.716c3.013-4.977,2.876-11.248-0.351-16.089
			l-30.187-45.281l25.035-25.035l45.281,30.187c4.841,3.228,11.111,3.364,16.089,0.351c14.214-8.605,29.596-14.98,45.716-18.948
			c5.663-1.394,10.005-5.944,11.132-11.667L238.333,30h35.333l10.697,54.306c1.127,5.723,5.469,10.272,11.132,11.667
			c16.122,3.968,31.502,10.343,45.716,18.948c4.978,3.014,11.249,2.876,16.089-0.351l45.281-30.187l25.035,25.035l-30.187,45.281
			c-3.227,4.841-3.364,11.112-0.351,16.089c8.605,14.214,14.98,29.595,18.948,45.716c1.394,5.663,5.944,10.005,11.667,11.132
			L482,238.333V273.667z"/>
	</g>
</g>
<g>
	<g>
		<path d="M256,121c-74.439,0-135,60.561-135,135s60.561,135,135,135s135-60.561,135-135S330.439,121,256,121z M256,361
			c-57.897,0-105-47.103-105-105c0-57.897,47.103-105,105-105c57.897,0,105,47.103,105,105C361,313.897,313.897,361,256,361z"/>
	</g>
</g>
<g>
	<g>
		<path d="M256,181c-41.355,0-75,33.645-75,75s33.645,75,75,75s75-33.645,75-75C331,214.645,297.355,181,256,181z M256,301
			c-24.813,0-45-20.187-45-45s20.187-45,45-45s45,20.187,45,45S280.813,301,256,301z"/>
	</g>
</g>
<g>
</g>
<g>
</g>
<g>
</g>
<g>
</g>
<g>
</g>
<g>
</g>
<g>
</g>
<g>
</g>
<g>
</g>
<g>
</g>
<g>
</g>
<g>
</g>
<g>
</g>
<g>
</g>
<g>
</g>
</svg>
