<svg id="Icons" enable-background="new 0 0 30 30" height="512" viewBox="0 0 30 30" width="512" xmlns="http://www.w3.org/2000/svg"><g fill="rgb(0,0,0)"><path d="m25.42627 9.06543 2.25244-2.59961-4.14453-4.14453-2.59961 2.25244c-.87354-.5-1.79688-.88379-2.75879-1.14795l-.24463-3.42578h-5.8623l-.24463 3.42578c-.96192.26416-1.88526.64795-2.75879 1.14795l-2.59961-2.25244-4.14453 4.14453 2.25244 2.59961c-.5.87354-.88379 1.79688-1.14795 2.75879l-3.42578.24463v5.86182l3.42578.24512c.26416.96191.64795 1.88574 1.14795 2.75879l-2.25293 2.5996 4.14502 4.14453 2.59961-2.25293c.87354.5 1.79688.88477 2.75879 1.14844l.24463 3.42578h5.8623l.24463-3.42578c.96191-.26367 1.88525-.64844 2.75879-1.14844l2.59961 2.25293 4.14502-4.14453-2.25293-2.59961c.5-.87305.88379-1.79688 1.14795-2.75879l3.42578-.24512v-5.86182l-3.42578-.24463c-.26416-.96191-.64795-1.88525-1.14795-2.75878zm2.57373 7.00391-3.05371.21777-.15283.74121c-.25342 1.22949-.73682 2.39258-1.43799 3.45801l-.41602.63281 2.0083 2.31738-1.51123 1.51172-2.31836-2.00977-.63232.41699c-1.06494.70117-2.22803 1.18457-3.45752 1.43848l-.74121.15332-.21826 3.05274h-2.1377l-.21826-3.05273-.74121-.15332c-1.22949-.25391-2.39258-.7373-3.45752-1.43848l-.63232-.41699-2.31836 2.00977-1.51123-1.51172 2.0083-2.31738-.41602-.63281c-.70117-1.06543-1.18457-2.22852-1.43799-3.45801l-.15283-.74121-3.05371-.21778v-2.13818l3.05371-.21826.15283-.7417c.25342-1.22949.73682-2.39258 1.43799-3.45703l.41602-.63232-2.00879-2.31837 1.51172-1.51172 2.31836 2.00879.63232-.41602c1.06445-.70117 2.22754-1.18457 3.45703-1.43799l.7417-.15283.21826-3.05371h2.1377l.21826 3.05371.7417.15283c1.22949.25342 2.39258.73682 3.45703 1.43799l.63232.41602 2.31836-2.00879 1.51172 1.51172-2.00879 2.31836.41602.63232c.70117 1.06445 1.18457 2.22754 1.43799 3.45703l.15283.7417 3.05371.21826z"/><path d="m15 8c-3.85986 0-7 3.14014-7 7 0 3.85938 3.14014 7 7 7s7-3.14063 7-7c0-3.85986-3.14014-7-7-7zm0 12c-2.75684 0-5-2.24316-5-5s2.24316-5 5-5 5 2.24316 5 5-2.24316 5-5 5z"/></g></svg>