<?xml version="1.0" encoding="utf-8"?>
<!-- Generator: Adobe Illustrator 26.0.0, SVG Export Plug-In . SVG Version: 6.00 Build 0)  -->
<svg version="1.1"
	 id="Capa_1" image-rendering="optimizeQuality" text-rendering="geometricPrecision" shape-rendering="geometricPrecision"
	 xmlns="http://www.w3.org/2000/svg" xmlns:xlink="http://www.w3.org/1999/xlink" x="0px" y="0px" viewBox="0 0 204 204"
	 style="enable-background:new 0 0 204 204;" xml:space="preserve">
<style type="text/css">
	.st0{fill-rule:evenodd;clip-rule:evenodd;fill:#FEFEFE;}
</style>
<g id="_640160064">
	<g>
		<g>
			<path id="_640160952" class="st0" d="M127.2,136.5H76.8c-1.6,0-2.9-1.3-2.9-2.9v-29.2c0-15.5,12.6-28.1,28.1-28.1
				s28.1,12.6,28.1,28.1v29.2C130.1,135.2,128.8,136.5,127.2,136.5L127.2,136.5z M79.7,130.8h44.6v-26.3c0-12.3-10-22.3-22.3-22.3
				s-22.3,10-22.3,22.3L79.7,130.8L79.7,130.8z"/>
		</g>
		<g>
			<path id="_640161288" class="st0" d="M138.1,151.3H65.9c-1.6,0-2.9-1.3-2.9-2.9v-5.9c0-6.5,5.3-11.8,11.8-11.8h54.3
				c6.5,0,11.8,5.3,11.8,11.8v5.9C141,150.1,139.7,151.3,138.1,151.3L138.1,151.3z M68.8,145.6h66.4v-3c0-3.4-2.7-6.1-6.1-6.1H74.8
				c-3.4,0-6.1,2.7-6.1,6.1L68.8,145.6L68.8,145.6z"/>
		</g>
		<g>
			<path id="_640160856" class="st0" d="M102,69c-1.6,0-2.9-1.3-2.9-2.9V55.5c0-1.6,1.3-2.9,2.9-2.9c1.6,0,2.9,1.3,2.9,2.9v10.6
				C104.9,67.7,103.6,69,102,69z"/>
		</g>
		<g>
			<path id="_640161096" class="st0" d="M126,75.4c-0.5,0-1-0.1-1.4-0.4c-1.4-0.8-1.8-2.6-1.1-3.9l5.3-9.2c0.8-1.4,2.6-1.8,3.9-1.1
				c1.4,0.8,1.8,2.6,1.1,3.9l-5.3,9.2C127.9,74.9,127,75.4,126,75.4z"/>
		</g>
		<g>
			<path id="_640160904" class="st0" d="M143.5,92.9c-1,0-2-0.5-2.5-1.4c-0.8-1.4-0.3-3.1,1.1-3.9l9.2-5.3c1.4-0.8,3.1-0.3,3.9,1.1
				c0.8,1.4,0.3,3.1-1.1,3.9l-9.2,5.3C144.5,92.8,144,92.9,143.5,92.9z"/>
		</g>
		<g>
			<path id="_640161384" class="st0" d="M160.5,116.9h-10.6c-1.6,0-2.9-1.3-2.9-2.9c0-1.6,1.3-2.9,2.9-2.9h10.6
				c1.6,0,2.9,1.3,2.9,2.9C163.4,115.6,162.1,116.9,160.5,116.9L160.5,116.9z"/>
		</g>
		<g>
			<path id="_640159992" class="st0" d="M54,116.9H43.5c-1.6,0-2.9-1.3-2.9-2.9c0-1.6,1.3-2.9,2.9-2.9H54c1.6,0,2.9,1.3,2.9,2.9
				C56.9,115.6,55.6,116.9,54,116.9L54,116.9z"/>
		</g>
		<g>
			<path id="_640160160" class="st0" d="M60.5,92.9c-0.5,0-1-0.1-1.4-0.4l-9.2-5.3c-1.4-0.8-1.8-2.6-1.1-3.9
				c0.8-1.4,2.6-1.8,3.9-1.1l9.2,5.3c1.4,0.8,1.8,2.6,1.1,3.9C62.4,92.4,61.5,92.9,60.5,92.9z"/>
		</g>
		<g>
			<path id="_640160136" class="st0" d="M78,75.4c-1,0-2-0.5-2.5-1.4l-5.3-9.2c-0.8-1.4-0.3-3.1,1.1-3.9c1.4-0.8,3.1-0.3,3.9,1.1
				l5.3,9.2c0.8,1.4,0.3,3.1-1.1,3.9C79,75.3,78.5,75.4,78,75.4z"/>
		</g>
		<g>
			<path id="_640160544" class="st0" d="M102,136.5c-1.6,0-2.9-1.3-2.9-2.9v-24c0-1.6,1.3-2.9,2.9-2.9c1.6,0,2.9,1.3,2.9,2.9v24
				C104.9,135.2,103.6,136.5,102,136.5z"/>
		</g>
		<g>
			<path id="_640160664" class="st0" d="M112.5,112.5H91.5c-1.6,0-2.9-1.3-2.9-2.9c0-1.6,1.3-2.9,2.9-2.9h20.9
				c1.6,0,2.9,1.3,2.9,2.9C115.3,111.2,114,112.5,112.5,112.5L112.5,112.5z"/>
		</g>
	</g>
</g>
</svg>
