<svg id="Layer_1" height="512" viewBox="0 0 512 512" width="512" xmlns="http://www.w3.org/2000/svg" data-name="Layer 1"><path d="m255.992 165.826a90.176 90.176 0 1 0 90.18 90.174 90.273 90.273 0 0 0 -90.18-90.175zm8 225.666a8 8 0 0 1 -8 8c-79.122.001-143.492-64.369-143.492-143.492a8 8 0 0 1 16 0 127.635 127.635 0 0 0 127.492 127.5 8 8 0 0 1 8 8zm135.491-135.492a8 8 0 1 1 -16 0 127.634 127.634 0 0 0 -127.491-127.492 8 8 0 1 1 0-16c79.117 0 143.491 64.369 143.491 143.491zm96.507 32.138-54.429 5.3a8 8 0 0 0 -7 6.072 182.549 182.549 0 0 1 -21.537 51.976 8 8 0 0 0 .656 9.246l34.742 42.248-45.452 45.455-42.238-34.751a8.016 8.016 0 0 0 -9.252-.651 182.368 182.368 0 0 1 -51.967 21.532 8.01 8.01 0 0 0 -6.081 7l-5.298 54.435h-64.28l-5.3-54.434a8 8 0 0 0 -6.067-7 182.434 182.434 0 0 1 -51.98-21.532 8 8 0 0 0 -9.243.651l-42.252 34.751-45.449-45.452 34.751-42.248a8.015 8.015 0 0 0 .646-9.246 182.391 182.391 0 0 1 -21.527-51.976 8.011 8.011 0 0 0 -7-6.072l-54.439-5.3v-64.278l54.439-5.3a8.011 8.011 0 0 0 7-6.072 182.536 182.536 0 0 1 21.527-51.978 8.016 8.016 0 0 0 -.646-9.247l-34.751-42.244 45.446-45.451 42.252 34.747a8 8 0 0 0 9.243.651 182.541 182.541 0 0 1 51.98-21.532 8 8 0 0 0 6.067-7l5.303-54.438h64.28l5.3 54.434a8.01 8.01 0 0 0 6.081 7 182.487 182.487 0 0 1 51.965 21.536 8.018 8.018 0 0 0 9.252-.651l42.238-34.747 45.451 45.451-34.742 42.244a8 8 0 0 0 -.656 9.247 182.532 182.532 0 0 1 21.537 51.975 8 8 0 0 0 7 6.072l54.429 5.3v64.275zm8.78-79.495a7.992 7.992 0 0 1 7.223 7.959v78.8a8 8 0 0 1 -7.223 7.963l-56.09 5.459a198.64 198.64 0 0 1 -19.088 46.076l35.8 43.526a8 8 0 0 1 -.519 10.742l-55.723 55.709a8 8 0 0 1 -10.737.524l-43.522-35.8a197.938 197.938 0 0 1 -46.079 19.088l-5.463 56.09a7.993 7.993 0 0 1 -7.959 7.221h-78.79a8.013 8.013 0 0 1 -7.973-7.228l-5.458-56.09a198.3 198.3 0 0 1 -46.069-19.082l-43.531 35.8a8 8 0 0 1 -10.737-.524l-55.711-55.712a8 8 0 0 1 -.528-10.742l35.807-43.522a198 198 0 0 1 -19.088-46.074l-56.09-5.459a8.008 8.008 0 0 1 -7.232-7.967v-78.8a8 8 0 0 1 7.233-7.959l56.09-5.463a197.818 197.818 0 0 1 19.087-46.071l-35.807-43.526a8 8 0 0 1 .528-10.743l55.713-55.712a8 8 0 0 1 10.737-.524l43.531 35.8a198.122 198.122 0 0 1 46.07-19.088l5.458-56.09a8.013 8.013 0 0 1 7.97-7.224h78.79a7.993 7.993 0 0 1 7.959 7.228l5.463 56.09a198.1 198.1 0 0 1 46.079 19.088l43.522-35.8a7.992 7.992 0 0 1 10.737.524l55.722 55.712a8 8 0 0 1 .519 10.743l-35.8 43.526a198.64 198.64 0 0 1 19.088 46.074z" fill-rule="evenodd"/></svg>