<svg id="Layer_1" enable-background="new 0 0 512 512" height="512" viewBox="0 0 512 512" width="512" xmlns="http://www.w3.org/2000/svg"><path d="m505.037 196.46c-1.717-7.207-8.156-12.292-15.564-12.292h-41.903c-1.626-4.328-3.403-8.609-5.324-12.827l29.624-29.624c5.239-5.239 6.195-13.39 2.313-19.699-20.985-34.105-50.102-63.222-84.202-84.202-6.31-3.882-14.46-2.925-19.698 2.314l-29.625 29.624c-4.219-1.921-8.499-3.698-12.826-5.324v-41.903c0-7.408-5.085-13.847-12.291-15.564-38.951-9.284-80.13-9.284-119.081 0-7.206 1.717-12.291 8.156-12.291 15.564v41.903c-4.328 1.626-8.609 3.403-12.827 5.324l-29.625-29.624c-5.238-5.239-13.388-6.197-19.698-2.314-34.095 20.976-63.212 50.092-84.202 84.201-3.883 6.31-2.926 14.461 2.313 19.7l29.625 29.625c-1.92 4.217-3.697 8.498-5.323 12.826h-41.904c-7.407 0-13.847 5.085-15.564 12.29-9.284 38.949-9.285 80.127 0 119.083 1.717 7.206 8.156 12.291 15.564 12.291h41.905c1.626 4.329 3.403 8.611 5.322 12.826l-29.625 29.624c-5.238 5.238-6.195 13.388-2.314 19.698 20.976 34.095 50.092 63.212 84.201 84.202 6.311 3.884 14.462 2.925 19.7-2.313l29.625-29.625c4.215 1.919 8.497 3.696 12.826 5.323v41.904c0 7.407 5.085 13.847 12.29 15.564 19.477 4.643 39.504 6.964 59.539 6.964 20.03 0 40.068-2.322 59.543-6.964 7.206-1.717 12.291-8.156 12.291-15.564v-41.903c4.328-1.626 8.608-3.402 12.827-5.324l29.624 29.624c5.238 5.238 13.388 6.196 19.698 2.314 34.096-20.976 63.212-50.093 84.202-84.202 3.883-6.31 2.926-14.46-2.313-19.7l-29.625-29.624c1.921-4.217 3.698-8.498 5.324-12.826h41.904c7.407 0 13.847-5.085 15.564-12.29 9.284-38.945 9.285-80.123.001-119.08zm-28.565 99.371h-40.329c-7.013 0-13.209 4.568-15.284 11.267-3.117 10.064-7.21 19.927-12.166 29.315-3.276 6.206-2.126 13.822 2.836 18.784l28.518 28.518c-15.251 21.906-34.433 41.088-56.33 56.332l-28.519-28.519c-4.963-4.962-12.58-6.112-18.785-2.835-9.39 4.959-19.252 9.051-29.311 12.164-6.701 2.074-11.27 8.271-11.27 15.285v40.328c-26.27 4.711-53.395 4.71-79.662 0v-40.328c0-7.012-4.567-13.208-11.265-15.284-10.076-3.122-19.94-7.216-29.317-12.166-6.205-3.276-13.822-2.126-18.784 2.836l-28.519 28.518c-21.906-15.251-41.088-34.433-56.331-56.331l28.518-28.519c4.963-4.962 6.112-12.579 2.836-18.785-4.95-9.374-9.043-19.237-12.165-29.316-2.075-6.699-8.271-11.265-15.284-11.265h-40.33c-4.71-26.27-4.71-53.396 0-79.662h40.329c7.014 0 13.21-4.568 15.285-11.268 3.116-10.064 7.209-19.926 12.165-29.314 3.276-6.206 2.126-13.822-2.836-18.784l-28.518-28.519c15.251-21.905 34.433-41.088 56.33-56.331l28.519 28.519c4.962 4.962 12.579 6.11 18.785 2.835 9.386-4.957 19.248-9.05 29.312-12.164 6.7-2.074 11.269-8.271 11.269-15.285v-40.328c26.268-4.709 53.394-4.709 79.662 0v40.328c0 7.014 4.568 13.211 11.269 15.285 10.052 3.111 19.915 7.204 29.314 12.165 6.206 3.276 13.821 2.125 18.782-2.836l28.519-28.519c21.9 15.246 41.082 34.427 56.331 56.331l-28.519 28.518c-4.963 4.963-6.112 12.58-2.835 18.786 4.956 9.386 9.049 19.247 12.164 29.311 2.074 6.7 8.271 11.269 15.285 11.269h40.328c4.711 26.272 4.711 53.401.003 79.664zm-220.472-165.306c-69.187 0-125.475 56.288-125.475 125.475 0 69.188 56.288 125.475 125.475 125.475s125.475-56.288 125.475-125.475c0-69.188-56.287-125.475-125.475-125.475zm0 218.949c-51.542 0-93.474-41.932-93.474-93.474s41.932-93.474 93.474-93.474 93.474 41.932 93.474 93.474-41.932 93.474-93.474 93.474zm0-163.686c-38.716 0-70.213 31.497-70.213 70.212s31.497 70.212 70.213 70.212c38.715 0 70.212-31.497 70.212-70.212s-31.496-70.212-70.212-70.212zm0 108.423c-21.07 0-38.212-17.142-38.212-38.211s17.142-38.211 38.212-38.211c21.069 0 38.211 17.142 38.211 38.211s-17.141 38.211-38.211 38.211z"/></svg>