<?xml version="1.0" encoding="utf-8"?>
<!-- Generator: Adobe Illustrator 26.0.0, SVG Export Plug-In . SVG Version: 6.00 Build 0)  -->
<svg version="1.1" id="Capa_1" xmlns="http://www.w3.org/2000/svg" xmlns:xlink="http://www.w3.org/1999/xlink" x="0px" y="0px"
	 viewBox="0 0 461.4 345.8" style="enable-background:new 0 0 461.4 345.8;" xml:space="preserve">
<style type="text/css">
	.st0{fill:none;stroke:#1D71B8;stroke-width:3;stroke-miterlimit:10;}
	.st1{fill:#1B3257;}
	.st2{fill:none;}
	.st3{fill:#1D71B8;}
	.st4{font-family:'MyriadPro-Regular';}
	.st5{font-size:12px;}
	.st6{font-family:'CarbonBl-Regular';}
	.st7{font-size:20px;}
	.st8{fill:none;stroke:#FFFFFF;stroke-width:3;stroke-miterlimit:10;}
	.st9{fill:#FCFCFC;}
	.st10{fill:#FFFFFF;}
</style>
<polyline class="st0" points="60.2,247.3 70.5,247.3 70.5,272.4 31.6,272.4 31.6,221.1 53.5,221.1 53.5,247.3 "/>
<g>
	<path class="st1" d="M83.6,265.7v-35h-7.7v-5.1h25v5.1h-7.7v35H83.6z"/>
	<path class="st1" d="M118.3,265.7v-15.9h-5.6v15.9H103v-33.5c0-4.8,5.4-7.9,12.5-7.9c6.9,0,12.4,3,12.4,7.9v33.5H118.3z M118.3,232
		c0-1.7-1-2.5-2.8-2.5c-1.9,0-2.8,0.8-2.8,2.5v12.6h5.6L118.3,232L118.3,232z"/>
	<path class="st1" d="M155.1,259.3c0,5.7-4.2,7.7-11.9,7.7c-6.9,0-11.7-2.1-11.7-8.5v-6.6h8.9v7.4c0,1.7,1,2.5,2.8,2.5
		c1.9,0,2.8-0.8,2.8-3.1v-3.4c0-1.4-0.5-3.3-2.2-4.6l-8-6.5c-2.8-2.2-3.9-4.2-3.9-7.5v-4c0-6.3,3.9-8.3,11.7-8.3
		c6.9,0,11.7,2.1,11.7,8.5v5.3h-8.9v-6.1c0-1.7-1-2.5-2.8-2.5s-2.8,0.8-2.8,2.8v2.8c0,2.3,0.4,3.1,2.1,4.5l8.5,6.8
		c2.5,2,3.7,4.4,3.7,8V259.3L155.1,259.3z"/>
	<path class="st1" d="M174.9,265.7l-6.6-20.3v20.3h-9.6v-40.2h9.6v17.8l6.9-17.8h9l-7,17.4l8.2,22.8
		C185.4,265.7,174.9,265.7,174.9,265.7z"/>
	<path class="st1" d="M200.2,265.7v-40.2h20.7v5.5h-11.1v10.6h10.9v5.3h-10.8v18.8H200.2z"/>
	<path class="st1" d="M223.9,265.7v-40.2h9.6v34.7h11.7v5.6L223.9,265.7L223.9,265.7z"/>
	<path class="st1" d="M246.4,232.7c0-6.4,5.4-8.4,12.5-8.4c6.9,0,12.4,2.1,12.4,8.5v25.7c0,6.5-5.5,8.5-12.4,8.5
		c-7.1,0-12.5-2.1-12.5-8.4V232.7z M261.6,232c0-1.7-1-2.5-2.8-2.5c-1.8,0-2.8,0.8-2.8,2.5v27.3c0,1.7,1,2.5,2.8,2.5
		c1.8,0,2.8-0.8,2.8-2.5V232z"/>
	<path class="st1" d="M304.1,225.6h9.7v33.3c0,5.6-5.5,8.1-12,8.1c-3.2,0-5.5-0.7-7.5-2.2c-2.2,1.5-4.5,2.2-7.7,2.2
		c-6.5,0-11.8-2.5-11.8-8.1v-33.3h9.6v33.5c0,1.7,0.7,2.5,2.7,2.5c1.9,0,2.5-0.9,2.5-2.8v-33.3h9.4v33.9c0,1.3,1.2,2.2,2.5,2.2
		c1.9,0,2.6-0.8,2.6-2.5V225.6L304.1,225.6z"/>
</g>
<path class="st1" d="M61.5,229.7h-16c-0.4,0-0.6-0.2-0.6-0.6v-15.4c0-0.7,0.5-1.2,1.2-1.2h15.3c0.4,0,0.6,0.2,0.6,0.6V229
	C62.1,229.4,61.8,229.7,61.5,229.7z"/>
<path class="st1" d="M61.5,255.9h-16c-0.4,0-0.6-0.2-0.6-0.6v-15.4c0-0.7,0.5-1.2,1.2-1.2h15.3c0.4,0,0.6,0.2,0.6,0.6v16
	C62.1,255.6,61.8,255.9,61.5,255.9z"/>
<path class="st1" d="M61.5,281h-16c-0.4,0-0.6-0.2-0.6-0.6v-15.3c0-0.7,0.5-1.2,1.2-1.2h15.3c0.4,0,0.6,0.2,0.6,0.6v15.9
	C62.1,280.7,61.8,281,61.5,281z"/>
<line class="st2" x1="57" y1="247.3" x2="56.8" y2="247.3"/>
<rect x="338.5" y="212.4" class="st1" width="26.8" height="26.8"/>
<rect x="338.5" y="248.8" class="st3" width="26.8" height="24.6"/>
<text transform="matrix(1 0 0 1 374.1722 229.6991)" class="st1 st4 st5">#1b3257</text>
<text transform="matrix(1 0 0 1 375.0681 265.8844)" class="st3 st4 st5">#1d71b8</text>
<text transform="matrix(1 0 0 1 112.4645 322.8066)" class="st1 st6 st7">Tipografía para logo: Carbon</text>
<rect x="22.7" y="14.7" class="st1" width="414.6" height="155"/>
<polyline class="st8" points="108.4,92.8 118.7,92.8 118.7,117.9 79.8,117.9 79.8,66.6 101.7,66.6 101.7,92.8 "/>
<g>
	<path class="st9" d="M131.8,111.2v-35h-7.7v-5.1h25v5.1h-7.7v35H131.8z"/>
	<path class="st9" d="M166.5,111.2V95.3h-5.6v15.9h-9.7V77.7c0-4.8,5.4-7.9,12.5-7.9c6.9,0,12.4,3,12.4,7.9v33.5H166.5z M166.5,77.5
		c0-1.7-1-2.5-2.8-2.5c-1.9,0-2.8,0.8-2.8,2.5v12.6h5.6L166.5,77.5L166.5,77.5z"/>
	<path class="st9" d="M203.3,104.8c0,5.7-4.2,7.7-11.9,7.7c-6.9,0-11.7-2.1-11.7-8.5v-6.6h8.9v7.4c0,1.7,1,2.5,2.8,2.5
		c1.9,0,2.8-0.8,2.8-3.1v-3.4c0-1.4-0.5-3.3-2.2-4.6l-8-6.5c-2.8-2.2-3.9-4.2-3.9-7.5v-4c0-6.3,3.9-8.3,11.7-8.3
		c6.9,0,11.7,2.1,11.7,8.5v5.3h-8.9v-6.1c0-1.7-1-2.5-2.8-2.5s-2.8,0.8-2.8,2.8v2.8c0,2.3,0.4,3.1,2.1,4.5l8.5,6.8
		c2.5,2,3.7,4.4,3.7,8V104.8L203.3,104.8z"/>
	<path class="st9" d="M223.1,111.2l-6.6-20.3v20.3h-9.6V71h9.6v17.8l6.9-17.8h9l-7,17.4l8.2,22.8
		C233.6,111.2,223.1,111.2,223.1,111.2z"/>
	<path class="st9" d="M248.4,111.2V71h20.7v5.5H258v10.6h10.9v5.3h-10.8v18.8H248.4z"/>
	<path class="st9" d="M272.1,111.2V71h9.6v34.7h11.7v5.6L272.1,111.2L272.1,111.2z"/>
	<path class="st9" d="M294.6,78.2c0-6.4,5.4-8.4,12.5-8.4c6.9,0,12.4,2.1,12.4,8.5V104c0,6.5-5.5,8.5-12.4,8.5
		c-7.1,0-12.5-2.1-12.5-8.4V78.2z M309.8,77.5c0-1.7-1-2.5-2.8-2.5c-1.8,0-2.8,0.8-2.8,2.5v27.3c0,1.7,1,2.5,2.8,2.5
		c1.8,0,2.8-0.8,2.8-2.5V77.5z"/>
	<path class="st9" d="M352.3,71.1h9.7v33.3c0,5.6-5.5,8.1-12,8.1c-3.2,0-5.5-0.7-7.5-2.2c-2.2,1.5-4.5,2.2-7.7,2.2
		c-6.5,0-11.8-2.5-11.8-8.1V71.1h9.6v33.5c0,1.7,0.7,2.5,2.7,2.5c1.9,0,2.5-0.9,2.5-2.8V71h9.4v33.9c0,1.3,1.2,2.2,2.5,2.2
		c1.9,0,2.6-0.8,2.6-2.5V71.1L352.3,71.1z"/>
</g>
<path class="st10" d="M109.7,75.2h-16c-0.4,0-0.6-0.2-0.6-0.6V59.2c0-0.7,0.5-1.2,1.2-1.2h15.3c0.4,0,0.6,0.2,0.6,0.6v15.9
	C110.3,74.9,110,75.2,109.7,75.2z"/>
<path class="st10" d="M109.7,101.4h-16c-0.4,0-0.6-0.2-0.6-0.6V85.4c0-0.7,0.5-1.2,1.2-1.2h15.3c0.4,0,0.6,0.2,0.6,0.6v16
	C110.3,101.1,110,101.4,109.7,101.4z"/>
<path class="st10" d="M109.7,126.5h-16c-0.4,0-0.6-0.2-0.6-0.6v-15.3c0-0.7,0.5-1.2,1.2-1.2h15.3c0.4,0,0.6,0.2,0.6,0.6v15.9
	C110.3,126.2,110,126.5,109.7,126.5z"/>
<line class="st2" x1="105.2" y1="92.8" x2="105" y2="92.8"/>
</svg>
