<?xml version="1.0" encoding="utf-8"?>
<!-- Generator: Adobe Illustrator 26.0.0, SVG Export Plug-In . SVG Version: 6.00 Build 0)  -->
<svg version="1.1" id="Capa_1" xmlns="http://www.w3.org/2000/svg" xmlns:xlink="http://www.w3.org/1999/xlink" x="0px" y="0px"
	 viewBox="0 0 300 110.9" style="enable-background:new 0 0 300 110.9;" xml:space="preserve">
<style type="text/css">
	.st0{fill:none;stroke:#FFFFFF;stroke-width:3;stroke-miterlimit:10;}
	.st1{fill:#FFFFFF;}
	.st2{fill:none;}
</style>
<polyline class="st0" points="34.3,58.1 44.8,58.1 44.8,83.6 5.3,83.6 5.3,31.4 27.5,31.4 27.5,58.1 "/>
<g>
	<path class="st1" d="M58.2,76.8V41.2h-7.9v-5.2h25.4v5.2H68v35.6H58.2z"/>
	<path class="st1" d="M93.5,76.8V60.6h-5.7v16.2h-9.8V42.7c0-4.9,5.5-8,12.7-8c7,0,12.6,3.1,12.6,8v34.1H93.5z M93.5,42.5
		c0-1.7-1-2.6-2.9-2.6c-1.9,0-2.9,0.9-2.9,2.6v12.8h5.7L93.5,42.5L93.5,42.5z"/>
	<path class="st1" d="M130.9,70.2c0,5.8-4.3,7.9-12.1,7.9c-7,0-11.9-2.1-11.9-8.6v-6.7h9v7.6c0,1.7,1,2.6,2.9,2.6
		c1.9,0,2.9-0.9,2.9-3.1v-3.6c0-1.5-0.6-3.3-2.2-4.7l-8.2-6.6c-2.9-2.3-4-4.2-4-7.7v-4.1c0-6.4,3.9-8.4,11.9-8.4
		c7,0,11.9,2.1,11.9,8.6v5.3h-9v-6.2c0-1.7-1-2.6-2.9-2.6c-1.9,0-2.9,0.9-2.9,2.8v2.8c0,2.3,0.4,3.1,2.1,4.5l8.7,6.9
		c2.5,2,3.8,4.5,3.8,8.2V70.2L130.9,70.2z"/>
	<path class="st1" d="M151.1,76.8l-6.8-20.7v20.7h-9.8V35.9h9.8v18.1l7.1-18.1h9.2l-7.1,17.7l8.3,23.2H151.1z"/>
	<path class="st1" d="M176.8,76.8V35.9h21.1v5.6h-11.3v10.8h11v5.4h-11v19.2H176.8z"/>
	<path class="st1" d="M200.9,76.8V35.9h9.8v35.3h11.9v5.7H200.9z"/>
	<path class="st1" d="M223.8,43.3c0-6.5,5.5-8.5,12.7-8.5c7,0,12.6,2.1,12.6,8.6v26.1c0,6.6-5.6,8.6-12.6,8.6
		c-7.2,0-12.7-2.1-12.7-8.5V43.3z M239.3,42.5c0-1.7-1-2.6-2.9-2.6s-2.9,0.9-2.9,2.6v27.8c0,1.7,1,2.6,2.9,2.6s2.9-0.9,2.9-2.6V42.5
		z"/>
	<path class="st1" d="M282.5,35.9h9.8v33.9c0,5.7-5.6,8.2-12.2,8.2c-3.3,0-5.6-0.7-7.6-2.3c-2.2,1.5-4.6,2.3-7.8,2.3
		c-6.6,0-12-2.5-12-8.2V35.9h9.8v34.1c0,1.7,0.7,2.6,2.7,2.6c1.9,0,2.6-0.9,2.6-2.8V35.9h9.6v34.5c0,1.3,1.2,2.2,2.5,2.2
		c1.9,0,2.6-0.9,2.6-2.6L282.5,35.9L282.5,35.9L282.5,35.9z"/>
</g>
<path class="st1" d="M35.6,40.1H19.4c-0.4,0-0.6-0.2-0.6-0.6V23.9c0-0.7,0.6-1.2,1.2-1.2h15.6c0.4,0,0.6,0.2,0.6,0.6v16.2
	C36.2,39.8,36,40.1,35.6,40.1z"/>
<path class="st1" d="M35.6,66.8H19.4c-0.4,0-0.6-0.2-0.6-0.6V50.6c0-0.7,0.6-1.2,1.2-1.2h15.6c0.4,0,0.6,0.2,0.6,0.6v16.2
	C36.2,66.5,36,66.8,35.6,66.8z"/>
<path class="st1" d="M35.6,92.4H19.4c-0.4,0-0.6-0.2-0.6-0.6V76.1c0-0.7,0.6-1.2,1.2-1.2h15.6c0.4,0,0.6,0.2,0.6,0.6v16.2
	C36.2,92.1,36,92.4,35.6,92.4z"/>
<line class="st2" x1="31.1" y1="58.1" x2="30.9" y2="58.1"/>
</svg>
